<svg width="512" height="539" viewBox="0 0 512 539" fill="none" xmlns="http://www.w3.org/2000/svg">
<path d="M382.877 30C393.922 30 402.877 38.9543 402.877 50L402.877 68.9589C402.877 102.096 376.014 128.959 342.877 128.959L106 128.959L106 90C106 56.8629 132.863 30 166 30L382.877 30Z" fill="#262626"/>
<g filter="url(#filter0_d_54_44)">
<path d="M188.466 69.3909C186.993 69.3909 185.799 70.5848 185.799 72.0576C185.799 73.5303 186.993 74.7242 188.466 74.7242C189.939 74.7242 191.132 73.5303 191.132 72.0576C191.132 70.5848 189.939 69.3909 188.466 69.3909ZM250.63 72.0576L250.63 72.5576L250.923 72.5576L251.066 72.3027L250.63 72.0576ZM263.156 49.7918L263.156 49.2918L262.864 49.2918L262.72 49.5467L263.156 49.7918ZM366.145 47.1251C364.673 47.1251 363.479 48.319 363.479 49.7918C363.479 51.2646 364.673 52.4585 366.145 52.4585C367.618 52.4585 368.812 51.2646 368.812 49.7918C368.812 48.319 367.618 47.1251 366.145 47.1251ZM253.762 63.8245C252.289 63.8245 251.095 65.0184 251.095 66.4911C251.095 67.9639 252.289 69.1578 253.762 69.1578C255.235 69.1578 256.429 67.9639 256.429 66.4911C256.429 65.0184 255.235 63.8245 253.762 63.8245ZM260.025 52.6916C258.552 52.6916 257.358 53.8855 257.358 55.3582C257.358 56.831 258.552 58.0249 260.025 58.0249C261.497 58.0249 262.691 56.831 262.691 55.3582C262.691 53.8855 261.497 52.6916 260.025 52.6916ZM219.548 69.3909C218.075 69.3909 216.881 70.5848 216.881 72.0576C216.881 73.5303 218.075 74.7242 219.548 74.7242C221.021 74.7242 222.215 73.5303 222.215 72.0576C222.215 70.5848 221.021 69.3909 219.548 69.3909ZM227.319 69.3909C225.846 69.3909 224.652 70.5848 224.652 72.0576C224.652 73.5303 225.846 74.7242 227.319 74.7242C228.791 74.7242 229.985 73.5303 229.985 72.0576C229.985 70.5848 228.791 69.3909 227.319 69.3909ZM263.156 50.2918L357.795 50.2918L357.795 49.2918L263.156 49.2918L263.156 50.2918ZM357.795 50.2918L366.145 50.2918L366.145 49.2918L357.795 49.2918L357.795 50.2918ZM251.066 72.3027L254.198 66.7363L253.326 66.246L250.195 71.8124L251.066 72.3027ZM260.461 55.6034L263.592 50.0369L262.72 49.5467L259.589 55.1131L260.461 55.6034ZM188.466 72.5576L219.548 72.5576L219.548 71.5576L188.466 71.5576L188.466 72.5576ZM235.089 72.5576L250.63 72.5576L250.63 71.5576L235.089 71.5576L235.089 72.5576ZM227.319 72.5576L235.089 72.5576L235.089 71.5576L227.319 71.5576L227.319 72.5576Z" fill="#00AED5"/>
</g>
<g filter="url(#filter1_d_54_44)">
<path d="M244.608 75.9881C243.135 75.9881 241.941 77.1821 241.941 78.6548C241.941 80.1276 243.135 81.3215 244.608 81.3215C246.08 81.3215 247.274 80.1276 247.274 78.6548C247.274 77.1821 246.08 75.9881 244.608 75.9881ZM263.179 65.8726L263.179 65.3726L262.892 65.3726L262.747 65.6207L263.179 65.8726ZM385.113 57.021C383.64 57.021 382.446 58.2149 382.446 59.6877C382.446 61.1604 383.64 62.3543 385.113 62.3543C386.585 62.3543 387.779 61.1604 387.779 59.6877C387.779 58.2149 386.585 57.021 385.113 57.021ZM302.834 63.206C301.361 63.206 300.167 64.3999 300.167 65.8726C300.167 67.3454 301.361 68.5393 302.834 68.5393C304.307 68.5393 305.5 67.3454 305.5 65.8726C305.5 64.3999 304.307 63.206 302.834 63.206ZM309.22 63.206C307.748 63.206 306.554 64.3999 306.554 65.8726C306.554 67.3454 307.748 68.5393 309.22 68.5393C310.693 68.5393 311.887 67.3454 311.887 65.8726C311.887 64.3999 310.693 63.206 309.22 63.206ZM189.953 75.9881C188.48 75.9881 187.286 77.1821 187.286 78.6548C187.286 80.1276 188.48 81.3215 189.953 81.3215C191.426 81.3215 192.62 80.1276 192.62 78.6548C192.62 77.1821 191.426 75.9881 189.953 75.9881ZM237.197 75.9881C235.724 75.9881 234.53 77.1821 234.53 78.6548C234.53 80.1276 235.724 81.3215 237.197 81.3215C238.67 81.3215 239.863 80.1276 239.863 78.6548C239.863 77.1821 238.67 75.9881 237.197 75.9881ZM255.724 78.6548L255.724 79.1548L256.011 79.1548L256.156 78.9067L255.724 78.6548ZM339.558 65.8726L339.981 65.6056L339.834 65.3726L339.558 65.3726L339.558 65.8726ZM341.642 69.1713L341.22 69.4383L341.367 69.6713L341.642 69.6713L341.642 69.1713ZM348.127 66.5046C346.654 66.5046 345.46 67.6985 345.46 69.1713C345.46 70.644 346.654 71.8379 348.127 71.8379C349.6 71.8379 350.794 70.644 350.794 69.1713C350.794 67.6985 349.6 66.5046 348.127 66.5046ZM354.188 66.5046C352.715 66.5046 351.521 67.6985 351.521 69.1713C351.521 70.644 352.715 71.8379 354.188 71.8379C355.661 71.8379 356.855 70.644 356.855 69.1713C356.855 67.6985 355.661 66.5046 354.188 66.5046ZM360.785 59.6877L360.785 59.1877H360.524L360.375 59.4022L360.785 59.6877ZM263.179 66.3726L302.834 66.3726L302.834 65.3726L263.179 65.3726L263.179 66.3726ZM189.953 79.1548L204.311 79.1548L204.311 78.1548L189.953 78.1548L189.953 79.1548ZM204.311 79.1548L229.554 79.1548L229.554 78.1548L204.311 78.1548L204.311 79.1548ZM229.554 79.1548L237.197 79.1548L237.197 78.1548L229.554 78.1548L229.554 79.1548ZM244.608 79.1548L255.724 79.1548L255.724 78.1548L244.608 78.1548L244.608 79.1548ZM256.156 78.9067L263.611 66.1245L262.747 65.6207L255.292 78.4029L256.156 78.9067ZM309.22 66.3726L339.558 66.3726L339.558 65.3726L309.22 65.3726L309.22 66.3726ZM339.136 66.1397L341.22 69.4383L342.065 68.9042L339.981 65.6056L339.136 66.1397ZM341.642 69.6713L348.127 69.6713L348.127 68.6713L341.642 68.6713L341.642 69.6713ZM354.598 69.4568L361.196 59.9732L360.375 59.4022L353.777 68.8857L354.598 69.4568ZM360.785 60.1877L385.113 60.1877L385.113 59.1877L360.785 59.1877L360.785 60.1877Z" fill="#00AED5"/>
</g>
<g filter="url(#filter2_d_54_44)">
<path d="M188.855 85.884C187.382 85.884 186.188 87.0779 186.188 88.5507C186.188 90.0235 187.382 91.2174 188.855 91.2174C190.328 91.2174 191.522 90.0235 191.522 88.5507C191.522 87.0779 190.328 85.884 188.855 85.884ZM258.612 88.5507L258.612 89.0507L258.875 89.0507L259.024 88.8343L258.612 88.5507ZM263.156 81.9534L263.156 81.4534L262.893 81.4534L262.744 81.6698L263.156 81.9534ZM366.145 79.2868C364.673 79.2868 363.479 80.4807 363.479 81.9534C363.479 83.4262 364.673 84.6201 366.145 84.6201C367.618 84.6201 368.812 83.4262 368.812 81.9534C368.812 80.4807 367.618 79.2868 366.145 79.2868ZM223.734 85.884C222.261 85.884 221.067 87.0779 221.067 88.5507C221.067 90.0235 222.261 91.2174 223.734 91.2174C225.206 91.2174 226.4 90.0235 226.4 88.5507C226.4 87.0779 225.206 85.884 223.734 85.884ZM232.453 85.884C230.981 85.884 229.787 87.0779 229.787 88.5507C229.787 90.0235 230.981 91.2174 232.453 91.2174C233.926 91.2174 235.12 90.0235 235.12 88.5507C235.12 87.0779 233.926 85.884 232.453 85.884ZM259.024 88.8343L263.568 82.237L262.744 81.6698L258.201 88.2671L259.024 88.8343ZM263.156 82.4534L357.795 82.4534L357.795 81.4534L263.156 81.4534L263.156 82.4534ZM357.795 82.4534L366.145 82.4534L366.145 81.4534L357.795 81.4534L357.795 82.4534ZM188.855 89.0507L223.734 89.0507L223.734 88.0507L188.855 88.0507L188.855 89.0507ZM241.173 89.0507L258.612 89.0507L258.612 88.0507L241.173 88.0507L241.173 89.0507ZM232.453 89.0507L236.813 89.0507L236.813 88.0507L232.453 88.0507L232.453 89.0507ZM236.813 89.0507L241.173 89.0507L241.173 88.0507L236.813 88.0507L236.813 89.0507Z" fill="#00AED5"/>
</g>
<g filter="url(#filter3_d_54_44)">
<path d="M254.811 97.4292C253.338 97.4292 252.144 98.6232 252.144 100.096C252.144 101.569 253.338 102.763 254.811 102.763C256.284 102.763 257.478 101.569 257.478 100.096C257.478 98.6232 256.284 97.4292 254.811 97.4292ZM304.296 104.027C302.823 104.027 301.629 105.22 301.629 106.693C301.629 108.166 302.823 109.36 304.296 109.36C305.769 109.36 306.963 108.166 306.963 106.693C306.963 105.22 305.769 104.027 304.296 104.027ZM248.073 97.4292C246.601 97.4292 245.407 98.6232 245.407 100.096C245.407 101.569 246.601 102.763 248.073 102.763C249.546 102.763 250.74 101.569 250.74 100.096C250.74 98.6232 249.546 97.4292 248.073 97.4292ZM261.316 100.096L261.666 99.7387L261.52 99.5959L261.316 99.5959L261.316 100.096ZM268.053 106.693L267.704 107.05L267.849 107.193L268.053 107.193L268.053 106.693ZM195.365 97.4292C193.892 97.4292 192.698 98.6231 192.698 100.096C192.698 101.569 193.892 102.763 195.365 102.763C196.838 102.763 198.031 101.569 198.031 100.096C198.031 98.6231 196.838 97.4292 195.365 97.4292ZM254.811 100.596L261.316 100.596L261.316 99.5959L254.811 99.5959L254.811 100.596ZM260.966 100.453L267.704 107.05L268.403 106.336L261.666 99.7387L260.966 100.453ZM268.053 107.193L288.73 107.193L288.73 106.193L268.053 106.193L268.053 107.193ZM288.73 107.193L304.296 107.193L304.296 106.193L288.73 106.193L288.73 107.193ZM205.906 100.596L248.073 100.596L248.073 99.5959L205.906 99.5959L205.906 100.596ZM195.365 100.596L205.906 100.596L205.906 99.5959L195.365 99.5959L195.365 100.596Z" fill="#00AED5"/>
</g>
<g filter="url(#filter4_d_54_44)">
<path d="M383.051 85.0325C384.524 85.0325 385.718 83.8386 385.718 82.3658C385.718 80.893 384.524 79.6991 383.051 79.6991C381.578 79.6991 380.384 80.893 380.384 82.3658C380.384 83.8386 381.578 85.0325 383.051 85.0325ZM315.841 96.99C317.314 96.99 318.508 95.7961 318.508 94.3233C318.508 92.8505 317.314 91.6566 315.841 91.6566C314.369 91.6566 313.175 92.8505 313.175 94.3233C313.175 95.7961 314.369 96.99 315.841 96.99ZM354.462 94.3233L354.462 93.8233L354.462 94.3233ZM367.199 96.99C368.672 96.99 369.865 95.7961 369.865 94.3233C369.865 92.8505 368.672 91.6566 367.199 91.6566C365.726 91.6566 364.532 92.8505 364.532 94.3233C364.532 95.7961 365.726 96.99 367.199 96.99ZM335.356 96.99C336.829 96.99 338.023 95.7961 338.023 94.3233C338.023 92.8505 336.829 91.6566 335.356 91.6566C333.883 91.6566 332.689 92.8505 332.689 94.3233C332.689 95.7961 333.883 96.99 335.356 96.99ZM341.725 96.99C343.197 96.99 344.391 95.7961 344.391 94.3233C344.391 92.8505 343.197 91.6566 341.725 91.6566C340.252 91.6566 339.058 92.8505 339.058 94.3233C339.058 95.7961 340.252 96.99 341.725 96.99ZM359.238 96.99C360.711 96.99 361.905 95.7961 361.905 94.3233C361.905 92.8505 360.711 91.6566 359.238 91.6566C357.765 91.6566 356.571 92.8505 356.571 94.3233C356.571 95.7961 357.765 96.99 359.238 96.99ZM377.278 94.3233L377.278 94.8233L377.592 94.8233L377.729 94.5407L377.278 94.3233ZM354.462 93.8233L348.093 93.8233L348.093 94.8233L354.462 94.8233L354.462 93.8233ZM335.356 93.8233L315.841 93.8233L315.841 94.8233L335.356 94.8233L335.356 93.8233ZM348.093 93.8233L341.725 93.8233L341.725 94.8233L348.093 94.8233L348.093 93.8233ZM359.238 93.8233L354.462 93.8233L354.462 94.8233L359.238 94.8233L359.238 93.8233ZM382.601 82.1484L376.828 94.1059L377.729 94.5407L383.501 82.5832L382.601 82.1484ZM377.278 93.8233L367.199 93.8233L367.199 94.8233L377.278 94.8233L377.278 93.8233Z" fill="#00AED5"/>
</g>
<g filter="url(#filter5_d_54_44)">
<path d="M373.567 109.36C375.04 109.36 376.234 108.166 376.234 106.693C376.234 105.22 375.04 104.027 373.567 104.027C372.095 104.027 370.901 105.22 370.901 106.693C370.901 108.166 372.095 109.36 373.567 109.36ZM265.537 96.1653C267.01 96.1653 268.204 94.9714 268.204 93.4986C268.204 92.0259 267.01 90.832 265.537 90.832C264.064 90.832 262.871 92.0259 262.871 93.4986C262.871 94.9714 264.064 96.1653 265.537 96.1653ZM318.857 106.693L318.441 106.971L318.589 107.193L318.857 107.193L318.857 106.693ZM310.047 93.4986L310.463 93.221L310.315 92.9986L310.047 92.9986L310.047 93.4986ZM287.792 96.1653C289.265 96.1653 290.459 94.9714 290.459 93.4986C290.459 92.0259 289.265 90.832 287.792 90.832C286.32 90.832 285.126 92.0259 285.126 93.4986C285.126 94.9714 286.32 96.1653 287.792 96.1653ZM298.92 96.1653C300.393 96.1653 301.587 94.9714 301.587 93.4986C301.587 92.0259 300.393 90.832 298.92 90.832C297.447 90.832 296.253 92.0259 296.253 93.4986C296.253 94.9714 297.447 96.1653 298.92 96.1653ZM304.484 93.4986L304.484 92.9986H304.484L304.484 93.4986ZM373.567 106.193L318.857 106.193L318.857 107.193L373.567 107.193L373.567 106.193ZM319.273 106.416L314.868 99.8183L314.036 100.374L318.441 106.971L319.273 106.416ZM314.868 99.8183L310.463 93.221L309.632 93.7763L314.036 100.374L314.868 99.8183ZM287.792 92.9986L265.537 92.9986L265.537 93.9986L287.792 93.9986L287.792 92.9986ZM310.047 92.9986L304.484 92.9986L304.484 93.9986L310.047 93.9986L310.047 92.9986ZM304.484 92.9986L298.92 92.9986L298.92 93.9986L304.484 93.9986L304.484 92.9986Z" fill="#00AED5"/>
</g>
<path d="M387 508.301C398.046 508.301 407 499.347 407 488.301L407 469.342C407 436.205 380.137 409.342 347 409.342L106 409.342L106 448.301C106 481.438 132.863 508.301 166 508.301L387 508.301Z" fill="#262626"/>
<g filter="url(#filter6_d_54_44)">
<path d="M189.611 467.261C188.138 467.261 186.944 466.067 186.944 464.595C186.944 463.122 188.138 461.928 189.611 461.928C191.084 461.928 192.278 463.122 192.278 464.595C192.278 466.067 191.084 467.261 189.611 467.261ZM252.639 464.595L252.639 464.095L252.93 464.095L253.074 464.347L252.639 464.595ZM265.339 486.86L265.339 487.36L265.048 487.36L264.905 487.108L265.339 486.86ZM369.759 489.527C368.286 489.527 367.092 488.333 367.092 486.86C367.092 485.388 368.286 484.194 369.759 484.194C371.231 484.194 372.425 485.388 372.425 486.86C372.425 488.333 371.231 489.527 369.759 489.527ZM255.814 472.828C254.341 472.828 253.147 471.634 253.147 470.161C253.147 468.688 254.341 467.494 255.814 467.494C257.287 467.494 258.481 468.688 258.481 470.161C258.481 471.634 257.287 472.828 255.814 472.828ZM262.164 483.961C260.691 483.961 259.497 482.767 259.497 481.294C259.497 479.821 260.691 478.627 262.164 478.627C263.637 478.627 264.831 479.821 264.831 481.294C264.831 482.767 263.637 483.961 262.164 483.961ZM221.125 467.261C219.652 467.261 218.458 466.067 218.458 464.595C218.458 463.122 219.652 461.928 221.125 461.928C222.598 461.928 223.792 463.122 223.792 464.595C223.792 466.067 222.598 467.261 221.125 467.261ZM229.004 467.261C227.531 467.261 226.337 466.067 226.337 464.595C226.337 463.122 227.531 461.928 229.004 461.928C230.476 461.928 231.67 463.122 231.67 464.595C231.67 466.067 230.476 467.261 229.004 467.261ZM265.339 486.36L361.292 486.36L361.292 487.36L265.339 487.36L265.339 486.36ZM361.292 486.36L369.759 486.36L369.759 487.36L361.292 487.36L361.292 486.36ZM253.074 464.347L256.248 469.913L255.38 470.409L252.205 464.842L253.074 464.347ZM262.598 481.046L265.773 486.613L264.905 487.108L261.73 481.542L262.598 481.046ZM189.611 464.095L221.125 464.095L221.125 465.095L189.611 465.095L189.611 464.095ZM236.882 464.095L252.639 464.095L252.639 465.095L236.882 465.095L236.882 464.095ZM229.004 464.095L236.882 464.095L236.882 465.095L229.004 465.095L229.004 464.095Z" fill="#00AED5"/>
</g>
<g filter="url(#filter7_d_54_44)">
<path d="M246.533 460.664C245.06 460.664 243.866 459.47 243.866 457.997C243.866 456.525 245.06 455.331 246.533 455.331C248.005 455.331 249.199 456.525 249.199 457.997C249.199 459.47 248.005 460.664 246.533 460.664ZM265.362 470.779L265.362 471.279L265.077 471.279L264.931 471.034L265.362 470.779ZM388.989 479.631C387.516 479.631 386.322 478.437 386.322 476.964C386.322 475.492 387.516 474.298 388.989 474.298C390.462 474.298 391.656 475.492 391.656 476.964C391.656 478.437 390.462 479.631 388.989 479.631ZM305.568 473.446C304.095 473.446 302.901 472.252 302.901 470.779C302.901 469.307 304.095 468.113 305.568 468.113C307.04 468.113 308.234 469.307 308.234 470.779C308.234 472.252 307.04 473.446 305.568 473.446ZM312.043 473.446C310.57 473.446 309.376 472.252 309.376 470.779C309.376 469.307 310.57 468.113 312.043 468.113C313.516 468.113 314.709 469.307 314.709 470.779C314.709 472.252 313.516 473.446 312.043 473.446ZM191.119 460.664C189.646 460.664 188.452 459.47 188.452 457.997C188.452 456.525 189.646 455.331 191.119 455.331C192.592 455.331 193.786 456.525 193.786 457.997C193.786 459.47 192.592 460.664 191.119 460.664ZM239.019 460.664C237.546 460.664 236.352 459.47 236.352 457.997C236.352 456.525 237.546 455.331 239.019 455.331C240.492 455.331 241.686 456.525 241.686 457.997C241.686 459.47 240.492 460.664 239.019 460.664ZM257.803 457.997L257.803 457.497L258.088 457.497L258.234 457.743L257.803 457.997ZM342.802 470.779L343.223 471.049L343.076 471.279L342.802 471.279L342.802 470.779ZM344.915 467.481L344.494 467.211L344.642 466.981L344.915 466.981L344.915 467.481ZM351.49 470.148C350.017 470.148 348.823 468.954 348.823 467.481C348.823 466.008 350.017 464.814 351.49 464.814C352.963 464.814 354.156 466.008 354.156 467.481C354.156 468.954 352.963 470.148 351.49 470.148ZM357.635 470.148C356.162 470.148 354.968 468.954 354.968 467.481C354.968 466.008 356.162 464.814 357.635 464.814C359.108 464.814 360.302 466.008 360.302 467.481C360.302 468.954 359.108 470.148 357.635 470.148ZM364.324 476.964L364.324 477.464H364.065L363.915 477.253L364.324 476.964ZM265.362 470.279L305.568 470.279L305.568 471.279L265.362 471.279L265.362 470.279ZM191.119 457.497L205.677 457.497L205.677 458.497L191.119 458.497L191.119 457.497ZM205.677 457.497L231.27 457.497L231.27 458.497L205.677 458.497L205.677 457.497ZM231.27 457.497L239.019 457.497L239.019 458.497L231.27 458.497L231.27 457.497ZM246.533 457.497L257.803 457.497L257.803 458.497L246.533 458.497L246.533 457.497ZM258.234 457.743L265.792 470.525L264.931 471.034L257.373 458.252L258.234 457.743ZM312.043 470.279L342.802 470.279L342.802 471.279L312.043 471.279L312.043 470.279ZM342.381 470.51L344.494 467.211L345.336 467.751L343.223 471.049L342.381 470.51ZM344.915 466.981L351.49 466.981L351.49 467.981L344.915 467.981L344.915 466.981ZM358.044 467.193L364.732 476.676L363.915 477.253L357.226 467.769L358.044 467.193ZM364.324 476.464L388.989 476.464L388.989 477.464L364.324 477.464L364.324 476.464Z" fill="#00AED5"/>
</g>
<g filter="url(#filter8_d_54_44)">
<path d="M190.006 450.768C188.533 450.768 187.339 449.574 187.339 448.101C187.339 446.629 188.533 445.435 190.006 445.435C191.479 445.435 192.672 446.629 192.672 448.101C192.672 449.574 191.479 450.768 190.006 450.768ZM260.732 448.101L260.732 447.601L260.993 447.601L261.142 447.815L260.732 448.101ZM265.339 454.699L265.339 455.199L265.078 455.199L264.929 454.985L265.339 454.699ZM369.759 457.365C368.286 457.365 367.092 456.171 367.092 454.699C367.092 453.226 368.286 452.032 369.759 452.032C371.231 452.032 372.425 453.226 372.425 454.699C372.425 456.171 371.231 457.365 369.759 457.365ZM225.369 450.768C223.896 450.768 222.702 449.574 222.702 448.101C222.702 446.629 223.896 445.435 225.369 445.435C226.842 445.435 228.036 446.629 228.036 448.101C228.036 449.574 226.842 450.768 225.369 450.768ZM234.21 450.768C232.737 450.768 231.543 449.574 231.543 448.101C231.543 446.629 232.737 445.435 234.21 445.435C235.682 445.435 236.876 446.629 236.876 448.101C236.876 449.574 235.682 450.768 234.21 450.768ZM261.142 447.815L265.749 454.412L264.929 454.985L260.322 448.388L261.142 447.815ZM265.339 454.199L361.292 454.199L361.292 455.199L265.339 455.199L265.339 454.199ZM361.292 454.199L369.759 454.199L369.759 455.199L361.292 455.199L361.292 454.199ZM190.006 447.601L225.369 447.601L225.369 448.601L190.006 448.601L190.006 447.601ZM243.05 447.601L260.732 447.601L260.732 448.601L243.05 448.601L243.05 447.601ZM234.21 447.601L238.63 447.601L238.63 448.601L234.21 448.601L234.21 447.601ZM238.63 447.601L243.05 447.601L243.05 448.601L238.63 448.601L238.63 447.601Z" fill="#00AED5"/>
</g>
<g filter="url(#filter9_d_54_44)">
<path d="M256.878 439.223C255.405 439.223 254.211 438.029 254.211 436.556C254.211 435.083 255.405 433.89 256.878 433.89C258.35 433.89 259.544 435.083 259.544 436.556C259.544 438.029 258.35 439.223 256.878 439.223ZM307.05 432.626C305.577 432.626 304.384 431.432 304.384 429.959C304.384 428.486 305.577 427.292 307.05 427.292C308.523 427.292 309.717 428.486 309.717 429.959C309.717 431.432 308.523 432.626 307.05 432.626ZM250.047 439.223C248.574 439.223 247.38 438.029 247.38 436.556C247.38 435.083 248.574 433.89 250.047 433.89C251.519 433.89 252.713 435.083 252.713 436.556C252.713 438.029 251.519 439.223 250.047 439.223ZM263.473 436.556L263.821 436.916L263.675 437.056L263.473 437.056L263.473 436.556ZM270.304 429.959L269.957 429.599L270.102 429.459L270.304 429.459L270.304 429.959ZM196.606 439.223C195.133 439.223 193.939 438.029 193.939 436.556C193.939 435.083 195.133 433.89 196.606 433.89C198.079 433.89 199.273 435.083 199.273 436.556C199.273 438.029 198.079 439.223 196.606 439.223ZM256.878 436.056L263.473 436.056L263.473 437.056L256.878 437.056L256.878 436.056ZM263.126 436.197L269.957 429.599L270.652 430.319L263.821 436.916L263.126 436.197ZM270.304 429.459L291.268 429.459L291.268 430.459L270.304 430.459L270.304 429.459ZM291.268 429.459L307.05 429.459L307.05 430.459L291.268 430.459L291.268 429.459ZM207.294 436.056L250.047 436.056L250.047 437.056L207.294 437.056L207.294 436.056ZM196.606 436.056L207.294 436.056L207.294 437.056L196.606 437.056L196.606 436.056Z" fill="#00AED5"/>
</g>
<g filter="url(#filter10_d_54_44)">
<path d="M386.899 451.62C388.372 451.62 389.566 452.814 389.566 454.286C389.566 455.759 388.372 456.953 386.899 456.953C385.426 456.953 384.232 455.759 384.232 454.286C384.232 452.814 385.426 451.62 386.899 451.62ZM318.756 439.662C320.229 439.662 321.422 440.856 321.422 442.329C321.422 443.802 320.229 444.995 318.756 444.995C317.283 444.995 316.089 443.802 316.089 442.329C316.089 440.856 317.283 439.662 318.756 439.662ZM357.913 442.329L357.913 442.829L357.913 442.329ZM370.827 439.662C372.299 439.662 373.493 440.856 373.493 442.329C373.493 443.802 372.299 444.995 370.827 444.995C369.354 444.995 368.16 443.802 368.16 442.329C368.16 440.856 369.354 439.662 370.827 439.662ZM338.541 439.662C340.014 439.662 341.208 440.856 341.208 442.329C341.208 443.802 340.014 444.995 338.541 444.995C337.069 444.995 335.875 443.802 335.875 442.329C335.875 440.856 337.069 439.662 338.541 439.662ZM344.999 439.662C346.471 439.662 347.665 440.856 347.665 442.329C347.665 443.802 346.471 444.995 344.999 444.995C343.526 444.995 342.332 443.802 342.332 442.329C342.332 440.856 343.526 439.662 344.999 439.662ZM362.755 439.662C364.228 439.662 365.422 440.856 365.422 442.329C365.422 443.802 364.228 444.995 362.755 444.995C361.283 444.995 360.089 443.802 360.089 442.329C360.089 440.856 361.283 439.662 362.755 439.662ZM381.046 442.329L381.046 441.829L381.358 441.829L381.495 442.109L381.046 442.329ZM357.913 442.829L351.456 442.829L351.456 441.829L357.913 441.829L357.913 442.829ZM338.541 442.829L318.756 442.829L318.756 441.829L338.541 441.829L338.541 442.829ZM351.456 442.829L344.999 442.829L344.999 441.829L351.456 441.829L351.456 442.829ZM362.755 442.829L357.913 442.829L357.913 441.829L362.755 441.829L362.755 442.829ZM386.45 454.506L380.597 442.549L381.495 442.109L387.348 454.067L386.45 454.506ZM381.046 442.829L370.827 442.829L370.827 441.829L381.046 441.829L381.046 442.829Z" fill="#00AED5"/>
</g>
<g filter="url(#filter11_d_54_44)">
<path d="M377.284 427.292C378.756 427.292 379.95 428.486 379.95 429.959C379.95 431.432 378.756 432.626 377.284 432.626C375.811 432.626 374.617 431.432 374.617 429.959C374.617 428.486 375.811 427.292 377.284 427.292ZM267.753 440.487C269.226 440.487 270.42 441.681 270.42 443.153C270.42 444.626 269.226 445.82 267.753 445.82C266.28 445.82 265.086 444.626 265.086 443.153C265.086 441.681 266.28 440.487 267.753 440.487ZM321.813 429.959L321.399 429.679L321.548 429.459L321.813 429.459L321.813 429.959ZM312.881 443.153L313.296 443.434L313.147 443.653L312.881 443.653L312.881 443.153ZM290.317 440.487C291.79 440.487 292.984 441.681 292.984 443.153C292.984 444.626 291.79 445.82 290.317 445.82C288.844 445.82 287.651 444.626 287.651 443.153C287.651 441.681 288.844 440.487 290.317 440.487ZM301.599 440.487C303.072 440.487 304.266 441.681 304.266 443.153C304.266 444.626 303.072 445.82 301.599 445.82C300.127 445.82 298.933 444.626 298.933 443.153C298.933 441.681 300.127 440.487 301.599 440.487ZM307.24 443.153L307.24 443.653H307.24L307.24 443.153ZM377.284 430.459L321.813 430.459L321.813 429.459L377.284 429.459L377.284 430.459ZM322.227 430.239L317.761 436.836L316.933 436.276L321.399 429.679L322.227 430.239ZM317.761 436.836L313.296 443.434L312.467 442.873L316.933 436.276L317.761 436.836ZM290.317 443.653L267.753 443.653L267.753 442.653L290.317 442.653L290.317 443.653ZM312.881 443.653L307.24 443.653L307.24 442.653L312.881 442.653L312.881 443.653ZM307.24 443.653L301.599 443.653L301.599 442.653L307.24 442.653L307.24 443.653Z" fill="#00AED5"/>
</g>
<path d="M402.877 269.151V269.151C402.877 241.824 380.724 219.671 353.397 219.671L106 219.671V219.671C106 246.998 128.153 269.151 155.479 269.151L402.877 269.151Z" fill="#262626"/>
<path d="M402.877 269.151V269.151C402.877 296.477 380.724 318.63 353.397 318.63L106 318.63V318.63C106 291.303 128.153 269.151 155.479 269.151L402.877 269.151Z" fill="#262626"/>
<g filter="url(#filter12_d_54_44)">
<path d="M154.655 259.887C153.182 259.887 151.988 261.081 151.988 262.553C151.988 264.026 153.182 265.22 154.655 265.22C156.128 265.22 157.321 264.026 157.321 262.553C157.321 261.081 156.128 259.887 154.655 259.887ZM216.819 262.553L216.819 263.053L217.112 263.053L217.255 262.799L216.819 262.553ZM229.345 240.288L229.345 239.788L229.053 239.788L228.909 240.043L229.345 240.288ZM332.334 237.621C330.862 237.621 329.668 238.815 329.668 240.288C329.668 241.76 330.862 242.954 332.334 242.954C333.807 242.954 335.001 241.76 335.001 240.288C335.001 238.815 333.807 237.621 332.334 237.621ZM219.951 254.32C218.478 254.32 217.284 255.514 217.284 256.987C217.284 258.46 218.478 259.654 219.951 259.654C221.424 259.654 222.618 258.46 222.618 256.987C222.618 255.514 221.424 254.32 219.951 254.32ZM226.214 243.187C224.741 243.187 223.547 244.381 223.547 245.854C223.547 247.327 224.741 248.521 226.214 248.521C227.687 248.521 228.88 247.327 228.88 245.854C228.88 244.381 227.687 243.187 226.214 243.187ZM185.737 259.887C184.264 259.887 183.07 261.081 183.07 262.553C183.07 264.026 184.264 265.22 185.737 265.22C187.21 265.22 188.404 264.026 188.404 262.553C188.404 261.081 187.21 259.887 185.737 259.887ZM193.508 259.887C192.035 259.887 190.841 261.081 190.841 262.553C190.841 264.026 192.035 265.22 193.508 265.22C194.981 265.22 196.174 264.026 196.174 262.553C196.174 261.081 194.981 259.887 193.508 259.887ZM229.345 240.788L323.984 240.788L323.984 239.788L229.345 239.788L229.345 240.788ZM323.984 240.788L332.334 240.788L332.334 239.788L323.984 239.788L323.984 240.788ZM217.255 262.799L220.387 257.232L219.515 256.742L216.384 262.308L217.255 262.799ZM226.65 246.099L229.781 240.533L228.909 240.043L225.778 245.609L226.65 246.099ZM154.655 263.053L185.737 263.053L185.737 262.053L154.655 262.053L154.655 263.053ZM201.278 263.053L216.819 263.053L216.819 262.053L201.278 262.053L201.278 263.053ZM193.508 263.053L201.278 263.053L201.278 262.053L193.508 262.053L193.508 263.053Z" fill="#00AED5"/>
</g>
<g filter="url(#filter13_d_54_44)">
<path d="M210.797 266.484C209.324 266.484 208.13 267.678 208.13 269.151C208.13 270.623 209.324 271.817 210.797 271.817C212.269 271.817 213.463 270.623 213.463 269.151C213.463 267.678 212.269 266.484 210.797 266.484ZM229.368 256.369L229.368 255.869L229.081 255.869L228.936 256.117L229.368 256.369ZM384.322 247.517C382.849 247.517 381.655 248.711 381.655 250.184C381.655 251.656 382.849 252.85 384.322 252.85C385.795 252.85 386.989 251.656 386.989 250.184C386.989 248.711 385.795 247.517 384.322 247.517ZM269.023 253.702C267.55 253.702 266.356 254.896 266.356 256.369C266.356 257.841 267.55 259.035 269.023 259.035C270.496 259.035 271.689 257.841 271.689 256.369C271.689 254.896 270.496 253.702 269.023 253.702ZM275.409 253.702C273.937 253.702 272.743 254.896 272.743 256.369C272.743 257.841 273.937 259.035 275.409 259.035C276.882 259.035 278.076 257.841 278.076 256.369C278.076 254.896 276.882 253.702 275.409 253.702ZM156.142 266.484C154.669 266.484 153.475 267.678 153.475 269.151C153.475 270.623 154.669 271.817 156.142 271.817C157.615 271.817 158.809 270.623 158.809 269.151C158.809 267.678 157.615 266.484 156.142 266.484ZM203.386 266.484C201.913 266.484 200.719 267.678 200.719 269.151C200.719 270.623 201.913 271.817 203.386 271.817C204.859 271.817 206.052 270.623 206.052 269.151C206.052 267.678 204.859 266.484 203.386 266.484ZM221.913 269.151L221.913 269.651L222.2 269.651L222.345 269.403L221.913 269.151ZM305.747 256.369L306.17 256.101L306.023 255.869L305.747 255.869L305.747 256.369ZM307.832 259.667L307.409 259.934L307.556 260.167L307.832 260.167L307.832 259.667ZM314.316 257C312.843 257 311.649 258.194 311.649 259.667C311.649 261.14 312.843 262.334 314.316 262.334C315.789 262.334 316.983 261.14 316.983 259.667C316.983 258.194 315.789 257 314.316 257ZM320.377 257C318.904 257 317.71 258.194 317.71 259.667C317.71 261.14 318.904 262.334 320.377 262.334C321.85 262.334 323.044 261.14 323.044 259.667C323.044 258.194 321.85 257 320.377 257ZM326.974 250.184L326.974 249.684L326.713 249.684L326.564 249.898L326.974 250.184ZM355.648 247.517C354.175 247.517 352.981 248.711 352.981 250.184C352.981 251.656 354.175 252.85 355.648 252.85C357.121 252.85 358.315 251.656 358.315 250.184C358.315 248.711 357.121 247.517 355.648 247.517ZM341.311 247.517C339.838 247.517 338.644 248.711 338.644 250.184C338.644 251.656 339.838 252.85 341.311 252.85C342.784 252.85 343.978 251.656 343.978 250.184C343.978 248.711 342.784 247.517 341.311 247.517ZM229.368 256.869L269.023 256.869L269.023 255.869L229.368 255.869L229.368 256.869ZM156.142 269.651L170.5 269.651L170.5 268.651L156.142 268.651L156.142 269.651ZM170.5 269.651L195.743 269.651L195.743 268.651L170.5 268.651L170.5 269.651ZM195.743 269.651L203.386 269.651L203.386 268.651L195.743 268.651L195.743 269.651ZM210.797 269.651L221.913 269.651L221.913 268.651L210.797 268.651L210.797 269.651ZM222.345 269.403L229.8 256.62L228.936 256.117L221.481 268.899L222.345 269.403ZM275.409 256.869L305.747 256.869L305.747 255.869L275.409 255.869L275.409 256.869ZM305.325 256.636L307.409 259.934L308.254 259.4L306.17 256.101L305.325 256.636ZM307.832 260.167L314.316 260.167L314.316 259.167L307.832 259.167L307.832 260.167ZM320.787 259.953L327.385 250.469L326.564 249.898L319.966 259.382L320.787 259.953ZM355.648 250.684L384.322 250.684L384.322 249.684L355.648 249.684L355.648 250.684ZM326.974 250.684L341.311 250.684L341.311 249.684L326.974 249.684L326.974 250.684Z" fill="#00AED5"/>
</g>
<g filter="url(#filter14_d_54_44)">
<path d="M155.044 276.38C153.571 276.38 152.377 277.574 152.377 279.047C152.377 280.519 153.571 281.713 155.044 281.713C156.517 281.713 157.711 280.519 157.711 279.047C157.711 277.574 156.517 276.38 155.044 276.38ZM224.801 279.047L224.801 279.547L225.064 279.547L225.213 279.33L224.801 279.047ZM229.345 272.449L229.345 271.949L229.082 271.949L228.933 272.166L229.345 272.449ZM332.334 269.783C330.862 269.783 329.668 270.977 329.668 272.449C329.668 273.922 330.862 275.116 332.334 275.116C333.807 275.116 335.001 273.922 335.001 272.449C335.001 270.977 333.807 269.783 332.334 269.783ZM189.923 276.38C188.45 276.38 187.256 277.574 187.256 279.047C187.256 280.519 188.45 281.713 189.923 281.713C191.396 281.713 192.589 280.519 192.589 279.047C192.589 277.574 191.396 276.38 189.923 276.38ZM198.642 276.38C197.17 276.38 195.976 277.574 195.976 279.047C195.976 280.519 197.17 281.713 198.642 281.713C200.115 281.713 201.309 280.519 201.309 279.047C201.309 277.574 200.115 276.38 198.642 276.38ZM225.213 279.33L229.757 272.733L228.933 272.166L224.39 278.763L225.213 279.33ZM229.345 272.949L323.984 272.949L323.984 271.949L229.345 271.949L229.345 272.949ZM323.984 272.949L332.334 272.949L332.334 271.949L323.984 271.949L323.984 272.949ZM155.044 279.547L189.923 279.547L189.923 278.547L155.044 278.547L155.044 279.547ZM207.362 279.547L224.801 279.547L224.801 278.547L207.362 278.547L207.362 279.547ZM198.642 279.547L203.002 279.547L203.002 278.547L198.642 278.547L198.642 279.547ZM203.002 279.547L207.362 279.547L207.362 278.547L203.002 278.547L203.002 279.547Z" fill="#00AED5"/>
</g>
<g filter="url(#filter15_d_54_44)">
<path d="M221 287.925C219.527 287.925 218.333 289.119 218.333 290.592C218.333 292.065 219.527 293.258 221 293.258C222.473 293.258 223.667 292.065 223.667 290.592C223.667 289.119 222.473 287.925 221 287.925ZM270.485 294.522C269.012 294.522 267.818 295.716 267.818 297.189C267.818 298.662 269.012 299.856 270.485 299.856C271.958 299.856 273.152 298.662 273.152 297.189C273.152 295.716 271.958 294.522 270.485 294.522ZM214.263 287.925C212.79 287.925 211.596 289.119 211.596 290.592C211.596 292.065 212.79 293.258 214.263 293.258C215.735 293.258 216.929 292.065 216.929 290.592C216.929 289.119 215.735 287.925 214.263 287.925ZM227.505 290.592L227.855 290.235L227.709 290.092L227.505 290.092L227.505 290.592ZM234.242 297.189L233.893 297.546L234.038 297.689L234.242 297.689L234.242 297.189ZM161.554 287.925C160.081 287.925 158.887 289.119 158.887 290.592C158.887 292.065 160.081 293.258 161.554 293.258C163.027 293.258 164.22 292.065 164.22 290.592C164.22 289.119 163.027 287.925 161.554 287.925ZM221 291.092L227.505 291.092L227.505 290.092L221 290.092L221 291.092ZM227.155 290.949L233.893 297.546L234.592 296.832L227.855 290.235L227.155 290.949ZM234.242 297.689L254.919 297.689L254.919 296.689L234.242 296.689L234.242 297.689ZM254.919 297.689L270.485 297.689L270.485 296.689L254.919 296.689L254.919 297.689ZM172.096 291.092L214.263 291.092L214.263 290.092L172.096 290.092L172.096 291.092ZM161.554 291.092L172.096 291.092L172.096 290.092L161.554 290.092L161.554 291.092Z" fill="#00AED5"/>
</g>
<g filter="url(#filter16_d_54_44)">
<path d="M368.653 275.528C370.126 275.528 371.32 274.334 371.32 272.862C371.32 271.389 370.126 270.195 368.653 270.195C367.181 270.195 365.987 271.389 365.987 272.862C365.987 274.334 367.181 275.528 368.653 275.528ZM291.136 287.486C292.608 287.486 293.802 286.292 293.802 284.819C293.802 283.346 292.608 282.152 291.136 282.152C289.663 282.152 288.469 283.346 288.469 284.819C288.469 286.292 289.663 287.486 291.136 287.486ZM325.427 287.486C326.9 287.486 328.094 286.292 328.094 284.819C328.094 283.346 326.9 282.152 325.427 282.152C323.954 282.152 322.76 283.346 322.76 284.819C322.76 286.292 323.954 287.486 325.427 287.486ZM333.388 287.486C334.861 287.486 336.054 286.292 336.054 284.819C336.054 283.346 334.861 282.152 333.388 282.152C331.915 282.152 330.721 283.346 330.721 284.819C330.721 286.292 331.915 287.486 333.388 287.486ZM343.467 284.819L343.467 285.319L343.729 285.319L343.878 285.104L343.467 284.819ZM351.748 272.862L351.748 272.362L351.486 272.362L351.337 272.577L351.748 272.862ZM325.427 284.319L291.136 284.319L291.136 285.319L325.427 285.319L325.427 284.319ZM343.467 284.319L333.388 284.319L333.388 285.319L343.467 285.319L343.467 284.319ZM368.653 272.362L351.748 272.362L351.748 273.362L368.653 273.362L368.653 272.362ZM351.337 272.577L343.056 284.534L343.878 285.104L352.159 273.146L351.337 272.577Z" fill="#00AED5"/>
</g>
<g filter="url(#filter17_d_54_44)">
<path d="M379.374 299.856C380.847 299.856 382.041 298.662 382.041 297.189C382.041 295.716 380.847 294.522 379.374 294.522C377.901 294.522 376.707 295.716 376.707 297.189C376.707 298.662 377.901 299.856 379.374 299.856ZM231.726 286.661C233.199 286.661 234.393 285.467 234.393 283.994C234.393 282.522 233.199 281.328 231.726 281.328C230.253 281.328 229.06 282.522 229.06 283.994C229.06 285.467 230.253 286.661 231.726 286.661ZM285.046 297.189L284.63 297.467L284.779 297.689H285.046L285.046 297.189ZM276.237 283.994L276.652 283.717L276.504 283.494L276.237 283.494L276.237 283.994ZM256.088 286.661C257.56 286.661 258.754 285.467 258.754 283.994C258.754 282.522 257.56 281.328 256.088 281.328C254.615 281.328 253.421 282.522 253.421 283.994C253.421 285.467 254.615 286.661 256.088 286.661ZM265.109 286.661C266.582 286.661 267.776 285.467 267.776 283.994C267.776 282.522 266.582 281.328 265.109 281.328C263.636 281.328 262.442 282.522 262.442 283.994C262.442 285.467 263.636 286.661 265.109 286.661ZM270.673 283.994L270.673 283.494H270.673L270.673 283.994ZM332.21 297.189L332.21 297.689L332.21 297.189ZM311.34 299.856C312.813 299.856 314.006 298.662 314.006 297.189C314.006 295.716 312.813 294.522 311.34 294.522C309.867 294.522 308.673 295.716 308.673 297.189C308.673 298.662 309.867 299.856 311.34 299.856ZM320.419 299.856C321.892 299.856 323.086 298.662 323.086 297.189C323.086 295.716 321.892 294.522 320.419 294.522C318.946 294.522 317.752 295.716 317.752 297.189C317.752 298.662 318.946 299.856 320.419 299.856ZM285.462 296.911L281.057 290.314L280.225 290.869L284.63 297.467L285.462 296.911ZM281.057 290.314L276.652 283.717L275.821 284.272L280.225 290.869L281.057 290.314ZM256.088 283.494L231.726 283.494L231.726 284.494L256.088 284.494L256.088 283.494ZM276.237 283.494L270.673 283.494L270.673 284.494L276.237 284.494L276.237 283.494ZM270.673 283.494L265.109 283.494L265.109 284.494L270.673 284.494L270.673 283.494ZM379.374 296.689L332.21 296.689L332.21 297.689L379.374 297.689L379.374 296.689ZM311.34 296.689L285.046 296.689L285.046 297.689L311.34 297.689L311.34 296.689ZM332.21 296.689L320.419 296.689L320.419 297.689L332.21 297.689L332.21 296.689Z" fill="#00AED5"/>
</g>
<g filter="url(#filter18_d_54_44)">
<path d="M106 488.301C106 499.347 114.954 508.301 126 508.301H195.063V30H126C114.954 30 106 38.9543 106 50V488.301Z" fill="#2A2A2A"/>
</g>
<mask id="mask0_54_44" style="mask-type:alpha" maskUnits="userSpaceOnUse" x="106" y="30" width="83" height="479">
<path d="M106 488.301C106 499.347 114.954 508.301 126 508.301H188.466V30H126C114.954 30 106 38.9543 106 50V488.301Z" fill="#2A2A2A"/>
</mask>
<g mask="url(#mask0_54_44)">
<g filter="url(#filter19_d_54_44)">
<path d="M124.142 374.707L123.789 374.353L123.642 374.5V374.707H124.142ZM139.399 359.451L139.752 359.804L139.899 359.658V359.451H139.399ZM139.399 248.947H139.899V248.739L139.752 248.593L139.399 248.947ZM117.133 226.681H116.633V226.888L116.779 227.034L117.133 226.681ZM114.466 43.6069C114.466 45.0796 115.66 46.2735 117.133 46.2735C118.606 46.2735 119.8 45.0796 119.8 43.6069C119.8 42.1341 118.606 40.9402 117.133 40.9402C115.66 40.9402 114.466 42.1341 114.466 43.6069ZM131.166 243.38C131.166 244.853 132.359 246.047 133.832 246.047C135.305 246.047 136.499 244.853 136.499 243.38C136.499 241.907 135.305 240.713 133.832 240.713C132.359 240.713 131.166 241.907 131.166 243.38ZM120.033 232.247C120.033 233.72 121.227 234.914 122.699 234.914C124.172 234.914 125.366 233.72 125.366 232.247C125.366 230.775 124.172 229.581 122.699 229.581C121.227 229.581 120.033 230.775 120.033 232.247ZM136.732 304.199C136.732 305.671 137.926 306.865 139.399 306.865C140.871 306.865 142.065 305.671 142.065 304.199C142.065 302.726 140.871 301.532 139.399 301.532C137.926 301.532 136.732 302.726 136.732 304.199ZM136.732 290.386C136.732 291.858 137.926 293.052 139.399 293.052C140.871 293.052 142.065 291.858 142.065 290.386C142.065 288.913 140.871 287.719 139.399 287.719C137.926 287.719 136.732 288.913 136.732 290.386ZM121.476 441.504C121.476 442.977 122.67 444.171 124.142 444.171C125.615 444.171 126.809 442.977 126.809 441.504C126.809 440.031 125.615 438.837 124.142 438.837C122.67 438.837 121.476 440.031 121.476 441.504ZM121.476 408.106C121.476 409.578 122.67 410.772 124.142 410.772C125.615 410.772 126.809 409.578 126.809 408.106C126.809 406.633 125.615 405.439 124.142 405.439C122.67 405.439 121.476 406.633 121.476 408.106ZM124.496 375.06L139.752 359.804L139.045 359.097L123.789 374.353L124.496 375.06ZM117.633 226.681V58.4507H116.633V226.681H117.633ZM117.633 58.4507V43.6069H116.633V58.4507H117.633ZM139.752 248.593L134.186 243.027L133.479 243.734L139.045 249.3L139.752 248.593ZM123.053 231.894L117.486 226.327L116.779 227.034L122.346 232.601L123.053 231.894ZM139.899 359.451V304.199H138.899V359.451H139.899ZM139.899 276.573V248.947H138.899V276.573H139.899ZM139.899 290.386V276.573H138.899V290.386H139.899ZM124.642 508.301V441.504H123.642V508.301H124.642ZM124.642 408.106V391.406H123.642V408.106H124.642ZM124.642 391.406V374.707H123.642V391.406H124.642Z" fill="#00AED5"/>
</g>
<g filter="url(#filter20_d_54_44)">
<path d="M140.223 382.129L139.821 381.832L139.723 381.964V382.129H140.223ZM143.329 374.295C143.329 375.767 144.523 376.961 145.996 376.961C147.469 376.961 148.663 375.767 148.663 374.295C148.663 372.822 147.469 371.628 145.996 371.628C144.523 371.628 143.329 372.822 143.329 374.295ZM143.329 259.255C143.329 260.728 144.523 261.921 145.996 261.921C147.469 261.921 148.663 260.728 148.663 259.255C148.663 257.782 147.469 256.588 145.996 256.588C144.523 256.588 143.329 257.782 143.329 259.255ZM133.214 226.19H132.714V226.391L132.854 226.536L133.214 226.19ZM124.362 50.2041C124.362 51.6769 125.556 52.8708 127.029 52.8708C128.502 52.8708 129.695 51.6769 129.695 50.2041C129.695 48.7313 128.502 47.5374 127.029 47.5374C125.556 47.5374 124.362 48.7313 124.362 50.2041ZM130.547 155.586C130.547 157.059 131.741 158.253 133.214 158.253C134.686 158.253 135.88 157.059 135.88 155.586C135.88 154.113 134.686 152.919 133.214 152.919C131.741 152.919 130.547 154.113 130.547 155.586ZM130.547 144.215C130.547 145.688 131.741 146.882 133.214 146.882C134.686 146.882 135.88 145.688 135.88 144.215C135.88 142.742 134.686 141.548 133.214 141.548C131.741 141.548 130.547 142.742 130.547 144.215ZM143.329 356.564C143.329 358.037 144.523 359.231 145.996 359.231C147.469 359.231 148.663 358.037 148.663 356.564C148.663 355.092 147.469 353.898 145.996 353.898C144.523 353.898 143.329 355.092 143.329 356.564ZM143.329 272.449C143.329 273.922 144.523 275.116 145.996 275.116C147.469 275.116 148.663 273.922 148.663 272.449C148.663 270.977 147.469 269.783 145.996 269.783C144.523 269.783 143.329 270.977 143.329 272.449ZM145.996 239.463H146.496V239.261L146.356 239.116L145.996 239.463ZM133.214 90.2L132.84 89.8678L132.714 90.0099V90.2H133.214ZM136.512 86.489L136.886 86.8212L137.012 86.6791V86.489H136.512ZM133.846 74.9438C133.846 76.4166 135.04 77.6105 136.512 77.6105C137.985 77.6105 139.179 76.4166 139.179 74.9438C139.179 73.4711 137.985 72.2772 136.512 72.2772C135.04 72.2772 133.846 73.4711 133.846 74.9438ZM133.846 68.7589C133.846 70.2317 135.04 71.4256 136.512 71.4256C137.985 71.4256 139.179 70.2317 139.179 68.7589C139.179 67.2861 137.985 66.0922 136.512 66.0922C135.04 66.0922 133.846 67.2861 133.846 68.7589ZM127.029 58.0383H126.529V58.2278L126.654 58.3696L127.029 58.0383ZM140.723 508.301V382.129H139.723V508.301H140.723ZM140.626 382.425L146.398 374.591L145.593 373.998L139.821 381.832L140.626 382.425ZM133.714 226.19V155.586H132.714V226.19H133.714ZM146.496 356.564V331H145.496V356.564H146.496ZM146.496 331V286.056H145.496V331H146.496ZM146.496 286.056V272.449H145.496V286.056H146.496ZM146.496 259.255V239.463H145.496V259.255H146.496ZM146.356 239.116L133.574 225.843L132.854 226.536L145.636 239.81L146.356 239.116ZM133.714 144.215V90.2H132.714V144.215H133.714ZM133.587 90.5322L136.886 86.8212L136.139 86.1569L132.84 89.8678L133.587 90.5322ZM137.012 86.489V74.9438H136.012V86.489H137.012ZM136.887 68.4276L127.403 57.7071L126.654 58.3696L136.138 69.0902L136.887 68.4276ZM127.529 58.0383V50.2041H126.529V58.0383H127.529Z" fill="#00AED5"/>
</g>
<g filter="url(#filter21_d_54_44)">
<path d="M155.892 234.515H156.392V234.328L156.27 234.188L155.892 234.515ZM148.882 226.431H148.382V226.618L148.504 226.758L148.882 226.431ZM146.216 43.1945C146.216 44.6673 147.409 45.8612 148.882 45.8612C150.355 45.8612 151.549 44.6673 151.549 43.1945C151.549 41.7218 150.355 40.5279 148.882 40.5279C147.409 40.5279 146.216 41.7218 146.216 43.1945ZM153.225 296.571C153.225 298.043 154.419 299.237 155.892 299.237C157.365 299.237 158.558 298.043 158.558 296.571C158.558 295.098 157.365 293.904 155.892 293.904C154.419 293.904 153.225 295.098 153.225 296.571ZM153.225 281.057C153.225 282.529 154.419 283.723 155.892 283.723C157.365 283.723 158.558 282.529 158.558 281.057C158.558 279.584 157.365 278.39 155.892 278.39C154.419 278.39 153.225 279.584 153.225 281.057ZM155.892 441.445L156.281 441.758L156.392 441.621V441.445H155.892ZM153.225 408.017C153.225 409.489 154.419 410.683 155.892 410.683C157.365 410.683 158.558 409.489 158.558 408.017C158.558 406.544 157.365 405.35 155.892 405.35C154.419 405.35 153.225 406.544 153.225 408.017ZM153.225 424.731C153.225 426.203 154.419 427.397 155.892 427.397C157.365 427.397 158.558 426.203 158.558 424.731C158.558 423.258 157.365 422.064 155.892 422.064C154.419 422.064 153.225 423.258 153.225 424.731ZM155.892 474.873H156.392V474.714L156.299 474.583L155.892 474.873ZM148.882 450.163L148.493 449.85L148.382 449.987V450.163H148.882ZM148.882 465.007H148.382V465.166L148.475 465.296L148.882 465.007ZM156.392 374.588V358.626H155.392V374.588H156.392ZM156.27 234.188L149.26 226.103L148.504 226.758L155.514 234.843L156.27 234.188ZM149.382 226.431V58.0515H148.382V226.431H149.382ZM149.382 58.0515V43.1945H148.382V58.0515H149.382ZM156.392 358.626V296.571H155.392V358.626H156.392ZM156.392 265.543V234.515H155.392V265.543H156.392ZM156.392 281.057V273.3H155.392V281.057H156.392ZM156.392 273.3V265.543H155.392V273.3H156.392ZM156.392 441.445V424.731H155.392V441.445H156.392ZM156.392 391.302V374.588H155.392V391.302H156.392ZM156.392 408.017V399.659H155.392V408.017H156.392ZM156.392 399.659V391.302H155.392V399.659H156.392ZM156.392 508.301V474.873H155.392V508.301H156.392ZM149.272 450.476L156.281 441.758L155.502 441.131L148.493 449.85L149.272 450.476ZM156.299 474.583L149.29 464.717L148.475 465.296L155.484 475.163L156.299 474.583ZM149.382 465.007V450.163H148.382V465.007H149.382Z" fill="#00AED5"/>
</g>
<g filter="url(#filter22_d_54_44)">
<path d="M164.77 241.937C164.77 243.41 165.964 244.604 167.437 244.604C168.91 244.604 170.104 243.41 170.104 241.937C170.104 240.464 168.91 239.27 167.437 239.27C165.964 239.27 164.77 240.464 164.77 241.937ZM171.368 154.111C171.368 155.584 172.561 156.778 174.034 156.778C175.507 156.778 176.701 155.584 176.701 154.111C176.701 152.638 175.507 151.444 174.034 151.444C172.561 151.444 171.368 152.638 171.368 154.111ZM164.77 429.134C164.77 430.607 165.964 431.801 167.437 431.801C168.91 431.801 170.104 430.607 170.104 429.134C170.104 427.661 168.91 426.468 167.437 426.468C165.964 426.468 164.77 427.661 164.77 429.134ZM164.77 403.57C164.77 405.043 165.964 406.237 167.437 406.237C168.91 406.237 170.104 405.043 170.104 403.57C170.104 402.097 168.91 400.903 167.437 400.903C165.964 400.903 164.77 402.097 164.77 403.57ZM164.77 253.895C164.77 255.367 165.964 256.561 167.437 256.561C168.91 256.561 170.104 255.367 170.104 253.895C170.104 252.422 168.91 251.228 167.437 251.228C165.964 251.228 164.77 252.422 164.77 253.895ZM167.437 474.078H167.937V473.889L167.812 473.748L167.437 474.078ZM167.437 443.153L167.791 443.507L167.937 443.361V443.153H167.437ZM158.366 452.225L158.012 451.871L157.866 452.018V452.225H158.366ZM158.366 463.77H157.866V463.959L157.99 464.1L158.366 463.77ZM164.77 491.19C164.77 492.662 165.964 493.856 167.437 493.856C168.91 493.856 170.104 492.662 170.104 491.19C170.104 489.717 168.91 488.523 167.437 488.523C165.964 488.523 164.77 489.717 164.77 491.19ZM164.77 482.634C164.77 484.107 165.964 485.301 167.437 485.301C168.91 485.301 170.104 484.107 170.104 482.634C170.104 481.161 168.91 479.967 167.437 479.967C165.964 479.967 164.77 481.161 164.77 482.634ZM167.437 230.392L166.999 230.15L166.937 230.263V230.392H167.437ZM174.034 218.434L174.472 218.676L174.534 218.563V218.434H174.034ZM164.77 366.151C164.77 367.624 165.964 368.818 167.437 368.818C168.91 368.818 170.104 367.624 170.104 366.151C170.104 364.678 168.91 363.484 167.437 363.484C165.964 363.484 164.77 364.678 164.77 366.151ZM164.77 347.442C164.77 348.914 165.964 350.108 167.437 350.108C168.91 350.108 170.104 348.914 170.104 347.442C170.104 345.969 168.91 344.775 167.437 344.775C165.964 344.775 164.77 345.969 164.77 347.442ZM167.937 443.153V429.134H166.937V443.153H167.937ZM158.719 452.578L167.791 443.507L167.083 442.8L158.012 451.871L158.719 452.578ZM167.812 473.748L158.741 463.44L157.99 464.1L167.062 474.408L167.812 473.748ZM158.866 463.77V452.225H157.866V463.77H158.866ZM167.937 508.301V491.19H166.937V508.301H167.937ZM167.937 482.634V474.078H166.937V482.634H167.937ZM167.937 241.937V230.392H166.937V241.937H167.937ZM167.875 230.633L174.472 218.676L173.596 218.193L166.999 230.15L167.875 230.633ZM174.534 218.434V181.737H173.534V218.434H174.534ZM174.534 181.737V154.111H173.534V181.737H174.534ZM167.937 328.732V253.895H166.937V328.732H167.937ZM167.937 403.57V366.151H166.937V403.57H167.937ZM167.937 347.442V328.732H166.937V347.442H167.937Z" fill="#00AED5"/>
</g>
<g filter="url(#filter23_d_54_44)">
<path d="M163.919 131.845C163.919 130.372 162.725 129.179 161.252 129.179C159.779 129.179 158.585 130.372 158.585 131.845C158.585 133.318 159.779 134.512 161.252 134.512C162.725 134.512 163.919 133.318 163.919 131.845ZM161.252 74.9438L161.752 74.9438L161.252 74.9438ZM161.252 63.7079L160.752 63.7079L161.252 63.7079ZM163.919 41.236C163.919 39.7632 162.725 38.5693 161.252 38.5693C159.779 38.5693 158.585 39.7632 158.585 41.236C158.585 42.7087 159.779 43.9026 161.252 43.9026C162.725 43.9026 163.919 42.7087 163.919 41.236ZM163.919 97.4158C163.919 95.943 162.725 94.7491 161.252 94.7491C159.779 94.7491 158.585 95.943 158.585 97.4158C158.585 98.8885 159.779 100.082 161.252 100.082C162.725 100.082 163.919 98.8885 163.919 97.4158ZM163.919 86.1798C163.919 84.707 162.725 83.5131 161.252 83.5131C159.779 83.5131 158.585 84.707 158.585 86.1798C158.585 87.6526 159.779 88.8465 161.252 88.8465C162.725 88.8465 163.919 87.6526 163.919 86.1798ZM163.919 55.2809C163.919 53.8082 162.725 52.6142 161.252 52.6142C159.779 52.6142 158.585 53.8082 158.585 55.2809C158.585 56.7537 159.779 57.9476 161.252 57.9476C162.725 57.9476 163.919 56.7537 163.919 55.2809ZM160.752 63.7079L160.752 74.9438L161.752 74.9438L161.752 63.7079L160.752 63.7079ZM160.752 30L160.752 41.236L161.752 41.236L161.752 30L160.752 30ZM160.752 97.4158L160.752 131.845L161.752 131.845L161.752 97.4158L160.752 97.4158ZM160.752 74.9438L160.752 86.1798L161.752 86.1798L161.752 74.9438L160.752 74.9438ZM160.752 55.2809L160.752 63.7079L161.752 63.7079L161.752 55.2809L160.752 55.2809Z" fill="#00AED5"/>
</g>
<g filter="url(#filter24_d_54_44)">
<path d="M163.506 222.145C163.506 220.672 162.312 219.479 160.84 219.479C159.367 219.479 158.173 220.672 158.173 222.145C158.173 223.618 159.367 224.812 160.84 224.812C162.312 224.812 163.506 223.618 163.506 222.145ZM174.034 127.31L174.417 127.632L174.534 127.492L174.534 127.31L174.034 127.31ZM160.84 142.978L160.457 142.656L160.34 142.796L160.34 142.978L160.84 142.978ZM163.506 182.562C163.506 181.089 162.312 179.895 160.84 179.895C159.367 179.895 158.173 181.089 158.173 182.562C158.173 184.034 159.367 185.228 160.84 185.228C162.312 185.228 163.506 184.034 163.506 182.562ZM163.506 162.77C163.506 161.297 162.312 160.103 160.84 160.103C159.367 160.103 158.173 161.297 158.173 162.77C158.173 164.243 159.367 165.437 160.84 165.437C162.312 165.437 163.506 164.243 163.506 162.77ZM160.84 152.874L160.34 152.874V152.874L160.84 152.874ZM173.534 30L173.534 127.31L174.534 127.31L174.534 30L173.534 30ZM173.652 126.987L167.055 134.822L167.819 135.466L174.417 127.632L173.652 126.987ZM167.055 134.822L160.457 142.656L161.222 143.3L167.819 135.466L167.055 134.822ZM160.34 182.562L160.34 222.145L161.34 222.145L161.34 182.562L160.34 182.562ZM160.34 142.978L160.34 152.874L161.34 152.874L161.34 142.978L160.34 142.978ZM160.34 152.874L160.34 162.77L161.34 162.77L161.34 152.874L160.34 152.874Z" fill="#00AED5"/>
</g>
</g>
<defs>
<filter id="filter0_d_54_44" x="181.799" y="43.1251" width="191.013" height="35.5991" filterUnits="userSpaceOnUse" color-interpolation-filters="sRGB">
<feFlood flood-opacity="0" result="BackgroundImageFix"/>
<feColorMatrix in="SourceAlpha" type="matrix" values="0 0 0 0 0 0 0 0 0 0 0 0 0 0 0 0 0 0 127 0" result="hardAlpha"/>
<feOffset/>
<feGaussianBlur stdDeviation="2"/>
<feComposite in2="hardAlpha" operator="out"/>
<feColorMatrix type="matrix" values="0 0 0 0 0 0 0 0 0 0.682353 0 0 0 0 0.831373 0 0 0 1 0"/>
<feBlend mode="normal" in2="BackgroundImageFix" result="effect1_dropShadow_54_44"/>
<feBlend mode="normal" in="SourceGraphic" in2="effect1_dropShadow_54_44" result="shape"/>
</filter>
<filter id="filter1_d_54_44" x="183.286" y="53.021" width="208.493" height="32.3005" filterUnits="userSpaceOnUse" color-interpolation-filters="sRGB">
<feFlood flood-opacity="0" result="BackgroundImageFix"/>
<feColorMatrix in="SourceAlpha" type="matrix" values="0 0 0 0 0 0 0 0 0 0 0 0 0 0 0 0 0 0 127 0" result="hardAlpha"/>
<feOffset/>
<feGaussianBlur stdDeviation="2"/>
<feComposite in2="hardAlpha" operator="out"/>
<feColorMatrix type="matrix" values="0 0 0 0 0 0 0 0 0 0.682353 0 0 0 0 0.831373 0 0 0 1 0"/>
<feBlend mode="normal" in2="BackgroundImageFix" result="effect1_dropShadow_54_44"/>
<feBlend mode="normal" in="SourceGraphic" in2="effect1_dropShadow_54_44" result="shape"/>
</filter>
<filter id="filter2_d_54_44" x="182.188" y="75.2867" width="190.624" height="19.9306" filterUnits="userSpaceOnUse" color-interpolation-filters="sRGB">
<feFlood flood-opacity="0" result="BackgroundImageFix"/>
<feColorMatrix in="SourceAlpha" type="matrix" values="0 0 0 0 0 0 0 0 0 0 0 0 0 0 0 0 0 0 127 0" result="hardAlpha"/>
<feOffset/>
<feGaussianBlur stdDeviation="2"/>
<feComposite in2="hardAlpha" operator="out"/>
<feColorMatrix type="matrix" values="0 0 0 0 0 0 0 0 0 0.682353 0 0 0 0 0.831373 0 0 0 1 0"/>
<feBlend mode="normal" in2="BackgroundImageFix" result="effect1_dropShadow_54_44"/>
<feBlend mode="normal" in="SourceGraphic" in2="effect1_dropShadow_54_44" result="shape"/>
</filter>
<filter id="filter3_d_54_44" x="188.698" y="93.4292" width="122.265" height="19.9306" filterUnits="userSpaceOnUse" color-interpolation-filters="sRGB">
<feFlood flood-opacity="0" result="BackgroundImageFix"/>
<feColorMatrix in="SourceAlpha" type="matrix" values="0 0 0 0 0 0 0 0 0 0 0 0 0 0 0 0 0 0 127 0" result="hardAlpha"/>
<feOffset/>
<feGaussianBlur stdDeviation="2"/>
<feComposite in2="hardAlpha" operator="out"/>
<feColorMatrix type="matrix" values="0 0 0 0 0 0 0 0 0 0.682353 0 0 0 0 0.831373 0 0 0 1 0"/>
<feBlend mode="normal" in2="BackgroundImageFix" result="effect1_dropShadow_54_44"/>
<feBlend mode="normal" in="SourceGraphic" in2="effect1_dropShadow_54_44" result="shape"/>
</filter>
<filter id="filter4_d_54_44" x="309.175" y="75.6991" width="80.5429" height="25.2909" filterUnits="userSpaceOnUse" color-interpolation-filters="sRGB">
<feFlood flood-opacity="0" result="BackgroundImageFix"/>
<feColorMatrix in="SourceAlpha" type="matrix" values="0 0 0 0 0 0 0 0 0 0 0 0 0 0 0 0 0 0 127 0" result="hardAlpha"/>
<feOffset/>
<feGaussianBlur stdDeviation="2"/>
<feComposite in2="hardAlpha" operator="out"/>
<feColorMatrix type="matrix" values="0 0 0 0 0 0 0 0 0 0.682353 0 0 0 0 0.831373 0 0 0 1 0"/>
<feBlend mode="normal" in2="BackgroundImageFix" result="effect1_dropShadow_54_44"/>
<feBlend mode="normal" in="SourceGraphic" in2="effect1_dropShadow_54_44" result="shape"/>
</filter>
<filter id="filter5_d_54_44" x="258.871" y="86.832" width="121.363" height="26.5279" filterUnits="userSpaceOnUse" color-interpolation-filters="sRGB">
<feFlood flood-opacity="0" result="BackgroundImageFix"/>
<feColorMatrix in="SourceAlpha" type="matrix" values="0 0 0 0 0 0 0 0 0 0 0 0 0 0 0 0 0 0 127 0" result="hardAlpha"/>
<feOffset/>
<feGaussianBlur stdDeviation="2"/>
<feComposite in2="hardAlpha" operator="out"/>
<feColorMatrix type="matrix" values="0 0 0 0 0 0 0 0 0 0.682353 0 0 0 0 0.831373 0 0 0 1 0"/>
<feBlend mode="normal" in2="BackgroundImageFix" result="effect1_dropShadow_54_44"/>
<feBlend mode="normal" in="SourceGraphic" in2="effect1_dropShadow_54_44" result="shape"/>
</filter>
<filter id="filter6_d_54_44" x="182.944" y="457.928" width="193.481" height="35.5991" filterUnits="userSpaceOnUse" color-interpolation-filters="sRGB">
<feFlood flood-opacity="0" result="BackgroundImageFix"/>
<feColorMatrix in="SourceAlpha" type="matrix" values="0 0 0 0 0 0 0 0 0 0 0 0 0 0 0 0 0 0 127 0" result="hardAlpha"/>
<feOffset/>
<feGaussianBlur stdDeviation="2"/>
<feComposite in2="hardAlpha" operator="out"/>
<feColorMatrix type="matrix" values="0 0 0 0 0 0 0 0 0 0.682353 0 0 0 0 0.831373 0 0 0 1 0"/>
<feBlend mode="normal" in2="BackgroundImageFix" result="effect1_dropShadow_54_44"/>
<feBlend mode="normal" in="SourceGraphic" in2="effect1_dropShadow_54_44" result="shape"/>
</filter>
<filter id="filter7_d_54_44" x="184.452" y="451.331" width="211.203" height="32.3005" filterUnits="userSpaceOnUse" color-interpolation-filters="sRGB">
<feFlood flood-opacity="0" result="BackgroundImageFix"/>
<feColorMatrix in="SourceAlpha" type="matrix" values="0 0 0 0 0 0 0 0 0 0 0 0 0 0 0 0 0 0 127 0" result="hardAlpha"/>
<feOffset/>
<feGaussianBlur stdDeviation="2"/>
<feComposite in2="hardAlpha" operator="out"/>
<feColorMatrix type="matrix" values="0 0 0 0 0 0 0 0 0 0.682353 0 0 0 0 0.831373 0 0 0 1 0"/>
<feBlend mode="normal" in2="BackgroundImageFix" result="effect1_dropShadow_54_44"/>
<feBlend mode="normal" in="SourceGraphic" in2="effect1_dropShadow_54_44" result="shape"/>
</filter>
<filter id="filter8_d_54_44" x="183.339" y="441.435" width="193.086" height="19.9306" filterUnits="userSpaceOnUse" color-interpolation-filters="sRGB">
<feFlood flood-opacity="0" result="BackgroundImageFix"/>
<feColorMatrix in="SourceAlpha" type="matrix" values="0 0 0 0 0 0 0 0 0 0 0 0 0 0 0 0 0 0 127 0" result="hardAlpha"/>
<feOffset/>
<feGaussianBlur stdDeviation="2"/>
<feComposite in2="hardAlpha" operator="out"/>
<feColorMatrix type="matrix" values="0 0 0 0 0 0 0 0 0 0.682353 0 0 0 0 0.831373 0 0 0 1 0"/>
<feBlend mode="normal" in2="BackgroundImageFix" result="effect1_dropShadow_54_44"/>
<feBlend mode="normal" in="SourceGraphic" in2="effect1_dropShadow_54_44" result="shape"/>
</filter>
<filter id="filter9_d_54_44" x="189.939" y="423.292" width="123.778" height="19.9306" filterUnits="userSpaceOnUse" color-interpolation-filters="sRGB">
<feFlood flood-opacity="0" result="BackgroundImageFix"/>
<feColorMatrix in="SourceAlpha" type="matrix" values="0 0 0 0 0 0 0 0 0 0 0 0 0 0 0 0 0 0 127 0" result="hardAlpha"/>
<feOffset/>
<feGaussianBlur stdDeviation="2"/>
<feComposite in2="hardAlpha" operator="out"/>
<feColorMatrix type="matrix" values="0 0 0 0 0 0 0 0 0 0.682353 0 0 0 0 0.831373 0 0 0 1 0"/>
<feBlend mode="normal" in2="BackgroundImageFix" result="effect1_dropShadow_54_44"/>
<feBlend mode="normal" in="SourceGraphic" in2="effect1_dropShadow_54_44" result="shape"/>
</filter>
<filter id="filter10_d_54_44" x="312.089" y="435.662" width="81.4764" height="25.2908" filterUnits="userSpaceOnUse" color-interpolation-filters="sRGB">
<feFlood flood-opacity="0" result="BackgroundImageFix"/>
<feColorMatrix in="SourceAlpha" type="matrix" values="0 0 0 0 0 0 0 0 0 0 0 0 0 0 0 0 0 0 127 0" result="hardAlpha"/>
<feOffset/>
<feGaussianBlur stdDeviation="2"/>
<feComposite in2="hardAlpha" operator="out"/>
<feColorMatrix type="matrix" values="0 0 0 0 0 0 0 0 0 0.682353 0 0 0 0 0.831373 0 0 0 1 0"/>
<feBlend mode="normal" in2="BackgroundImageFix" result="effect1_dropShadow_54_44"/>
<feBlend mode="normal" in="SourceGraphic" in2="effect1_dropShadow_54_44" result="shape"/>
</filter>
<filter id="filter11_d_54_44" x="261.086" y="423.292" width="122.864" height="26.5279" filterUnits="userSpaceOnUse" color-interpolation-filters="sRGB">
<feFlood flood-opacity="0" result="BackgroundImageFix"/>
<feColorMatrix in="SourceAlpha" type="matrix" values="0 0 0 0 0 0 0 0 0 0 0 0 0 0 0 0 0 0 127 0" result="hardAlpha"/>
<feOffset/>
<feGaussianBlur stdDeviation="2"/>
<feComposite in2="hardAlpha" operator="out"/>
<feColorMatrix type="matrix" values="0 0 0 0 0 0 0 0 0 0.682353 0 0 0 0 0.831373 0 0 0 1 0"/>
<feBlend mode="normal" in2="BackgroundImageFix" result="effect1_dropShadow_54_44"/>
<feBlend mode="normal" in="SourceGraphic" in2="effect1_dropShadow_54_44" result="shape"/>
</filter>
<filter id="filter12_d_54_44" x="147.988" y="233.621" width="191.013" height="35.5991" filterUnits="userSpaceOnUse" color-interpolation-filters="sRGB">
<feFlood flood-opacity="0" result="BackgroundImageFix"/>
<feColorMatrix in="SourceAlpha" type="matrix" values="0 0 0 0 0 0 0 0 0 0 0 0 0 0 0 0 0 0 127 0" result="hardAlpha"/>
<feOffset/>
<feGaussianBlur stdDeviation="2"/>
<feComposite in2="hardAlpha" operator="out"/>
<feColorMatrix type="matrix" values="0 0 0 0 0 0 0 0 0 0.682353 0 0 0 0 0.831373 0 0 0 1 0"/>
<feBlend mode="normal" in2="BackgroundImageFix" result="effect1_dropShadow_54_44"/>
<feBlend mode="normal" in="SourceGraphic" in2="effect1_dropShadow_54_44" result="shape"/>
</filter>
<filter id="filter13_d_54_44" x="149.475" y="243.517" width="241.513" height="32.3004" filterUnits="userSpaceOnUse" color-interpolation-filters="sRGB">
<feFlood flood-opacity="0" result="BackgroundImageFix"/>
<feColorMatrix in="SourceAlpha" type="matrix" values="0 0 0 0 0 0 0 0 0 0 0 0 0 0 0 0 0 0 127 0" result="hardAlpha"/>
<feOffset/>
<feGaussianBlur stdDeviation="2"/>
<feComposite in2="hardAlpha" operator="out"/>
<feColorMatrix type="matrix" values="0 0 0 0 0 0 0 0 0 0.682353 0 0 0 0 0.831373 0 0 0 1 0"/>
<feBlend mode="normal" in2="BackgroundImageFix" result="effect1_dropShadow_54_44"/>
<feBlend mode="normal" in="SourceGraphic" in2="effect1_dropShadow_54_44" result="shape"/>
</filter>
<filter id="filter14_d_54_44" x="148.377" y="265.783" width="190.624" height="19.9306" filterUnits="userSpaceOnUse" color-interpolation-filters="sRGB">
<feFlood flood-opacity="0" result="BackgroundImageFix"/>
<feColorMatrix in="SourceAlpha" type="matrix" values="0 0 0 0 0 0 0 0 0 0 0 0 0 0 0 0 0 0 127 0" result="hardAlpha"/>
<feOffset/>
<feGaussianBlur stdDeviation="2"/>
<feComposite in2="hardAlpha" operator="out"/>
<feColorMatrix type="matrix" values="0 0 0 0 0 0 0 0 0 0.682353 0 0 0 0 0.831373 0 0 0 1 0"/>
<feBlend mode="normal" in2="BackgroundImageFix" result="effect1_dropShadow_54_44"/>
<feBlend mode="normal" in="SourceGraphic" in2="effect1_dropShadow_54_44" result="shape"/>
</filter>
<filter id="filter15_d_54_44" x="154.887" y="283.925" width="122.265" height="19.9306" filterUnits="userSpaceOnUse" color-interpolation-filters="sRGB">
<feFlood flood-opacity="0" result="BackgroundImageFix"/>
<feColorMatrix in="SourceAlpha" type="matrix" values="0 0 0 0 0 0 0 0 0 0 0 0 0 0 0 0 0 0 127 0" result="hardAlpha"/>
<feOffset/>
<feGaussianBlur stdDeviation="2"/>
<feComposite in2="hardAlpha" operator="out"/>
<feColorMatrix type="matrix" values="0 0 0 0 0 0 0 0 0 0.682353 0 0 0 0 0.831373 0 0 0 1 0"/>
<feBlend mode="normal" in2="BackgroundImageFix" result="effect1_dropShadow_54_44"/>
<feBlend mode="normal" in="SourceGraphic" in2="effect1_dropShadow_54_44" result="shape"/>
</filter>
<filter id="filter16_d_54_44" x="284.469" y="266.195" width="90.8511" height="25.2908" filterUnits="userSpaceOnUse" color-interpolation-filters="sRGB">
<feFlood flood-opacity="0" result="BackgroundImageFix"/>
<feColorMatrix in="SourceAlpha" type="matrix" values="0 0 0 0 0 0 0 0 0 0 0 0 0 0 0 0 0 0 127 0" result="hardAlpha"/>
<feOffset/>
<feGaussianBlur stdDeviation="2"/>
<feComposite in2="hardAlpha" operator="out"/>
<feColorMatrix type="matrix" values="0 0 0 0 0 0 0 0 0 0.682353 0 0 0 0 0.831373 0 0 0 1 0"/>
<feBlend mode="normal" in2="BackgroundImageFix" result="effect1_dropShadow_54_44"/>
<feBlend mode="normal" in="SourceGraphic" in2="effect1_dropShadow_54_44" result="shape"/>
</filter>
<filter id="filter17_d_54_44" x="225.06" y="277.328" width="160.981" height="26.5279" filterUnits="userSpaceOnUse" color-interpolation-filters="sRGB">
<feFlood flood-opacity="0" result="BackgroundImageFix"/>
<feColorMatrix in="SourceAlpha" type="matrix" values="0 0 0 0 0 0 0 0 0 0 0 0 0 0 0 0 0 0 127 0" result="hardAlpha"/>
<feOffset/>
<feGaussianBlur stdDeviation="2"/>
<feComposite in2="hardAlpha" operator="out"/>
<feColorMatrix type="matrix" values="0 0 0 0 0 0 0 0 0 0.682353 0 0 0 0 0.831373 0 0 0 1 0"/>
<feBlend mode="normal" in2="BackgroundImageFix" result="effect1_dropShadow_54_44"/>
<feBlend mode="normal" in="SourceGraphic" in2="effect1_dropShadow_54_44" result="shape"/>
</filter>
<filter id="filter18_d_54_44" x="96" y="0" width="149.063" height="538.301" filterUnits="userSpaceOnUse" color-interpolation-filters="sRGB">
<feFlood flood-opacity="0" result="BackgroundImageFix"/>
<feColorMatrix in="SourceAlpha" type="matrix" values="0 0 0 0 0 0 0 0 0 0 0 0 0 0 0 0 0 0 127 0" result="hardAlpha"/>
<feOffset dx="20"/>
<feGaussianBlur stdDeviation="15"/>
<feComposite in2="hardAlpha" operator="out"/>
<feColorMatrix type="matrix" values="0 0 0 0 0 0 0 0 0 0 0 0 0 0 0 0 0 0 0.25 0"/>
<feBlend mode="normal" in2="BackgroundImageFix" result="effect1_dropShadow_54_44"/>
<feBlend mode="normal" in="SourceGraphic" in2="effect1_dropShadow_54_44" result="shape"/>
</filter>
<filter id="filter19_d_54_44" x="110.466" y="36.9402" width="35.5991" height="475.361" filterUnits="userSpaceOnUse" color-interpolation-filters="sRGB">
<feFlood flood-opacity="0" result="BackgroundImageFix"/>
<feColorMatrix in="SourceAlpha" type="matrix" values="0 0 0 0 0 0 0 0 0 0 0 0 0 0 0 0 0 0 127 0" result="hardAlpha"/>
<feOffset/>
<feGaussianBlur stdDeviation="2"/>
<feComposite in2="hardAlpha" operator="out"/>
<feColorMatrix type="matrix" values="0 0 0 0 0 0 0 0 0 0.682353 0 0 0 0 0.831373 0 0 0 1 0"/>
<feBlend mode="normal" in2="BackgroundImageFix" result="effect1_dropShadow_54_44"/>
<feBlend mode="normal" in="SourceGraphic" in2="effect1_dropShadow_54_44" result="shape"/>
</filter>
<filter id="filter20_d_54_44" x="120.362" y="43.5374" width="32.3005" height="468.764" filterUnits="userSpaceOnUse" color-interpolation-filters="sRGB">
<feFlood flood-opacity="0" result="BackgroundImageFix"/>
<feColorMatrix in="SourceAlpha" type="matrix" values="0 0 0 0 0 0 0 0 0 0 0 0 0 0 0 0 0 0 127 0" result="hardAlpha"/>
<feOffset/>
<feGaussianBlur stdDeviation="2"/>
<feComposite in2="hardAlpha" operator="out"/>
<feColorMatrix type="matrix" values="0 0 0 0 0 0 0 0 0 0.682353 0 0 0 0 0.831373 0 0 0 1 0"/>
<feBlend mode="normal" in2="BackgroundImageFix" result="effect1_dropShadow_54_44"/>
<feBlend mode="normal" in="SourceGraphic" in2="effect1_dropShadow_54_44" result="shape"/>
</filter>
<filter id="filter21_d_54_44" x="142.216" y="36.5278" width="20.3429" height="475.773" filterUnits="userSpaceOnUse" color-interpolation-filters="sRGB">
<feFlood flood-opacity="0" result="BackgroundImageFix"/>
<feColorMatrix in="SourceAlpha" type="matrix" values="0 0 0 0 0 0 0 0 0 0 0 0 0 0 0 0 0 0 127 0" result="hardAlpha"/>
<feOffset/>
<feGaussianBlur stdDeviation="2"/>
<feComposite in2="hardAlpha" operator="out"/>
<feColorMatrix type="matrix" values="0 0 0 0 0 0 0 0 0 0.682353 0 0 0 0 0.831373 0 0 0 1 0"/>
<feBlend mode="normal" in2="BackgroundImageFix" result="effect1_dropShadow_54_44"/>
<feBlend mode="normal" in="SourceGraphic" in2="effect1_dropShadow_54_44" result="shape"/>
</filter>
<filter id="filter22_d_54_44" x="153.866" y="147.444" width="26.8352" height="364.857" filterUnits="userSpaceOnUse" color-interpolation-filters="sRGB">
<feFlood flood-opacity="0" result="BackgroundImageFix"/>
<feColorMatrix in="SourceAlpha" type="matrix" values="0 0 0 0 0 0 0 0 0 0 0 0 0 0 0 0 0 0 127 0" result="hardAlpha"/>
<feOffset/>
<feGaussianBlur stdDeviation="2"/>
<feComposite in2="hardAlpha" operator="out"/>
<feColorMatrix type="matrix" values="0 0 0 0 0 0 0 0 0 0.682353 0 0 0 0 0.831373 0 0 0 1 0"/>
<feBlend mode="normal" in2="BackgroundImageFix" result="effect1_dropShadow_54_44"/>
<feBlend mode="normal" in="SourceGraphic" in2="effect1_dropShadow_54_44" result="shape"/>
</filter>
<filter id="filter23_d_54_44" x="154.585" y="26" width="13.3333" height="112.512" filterUnits="userSpaceOnUse" color-interpolation-filters="sRGB">
<feFlood flood-opacity="0" result="BackgroundImageFix"/>
<feColorMatrix in="SourceAlpha" type="matrix" values="0 0 0 0 0 0 0 0 0 0 0 0 0 0 0 0 0 0 127 0" result="hardAlpha"/>
<feOffset/>
<feGaussianBlur stdDeviation="2"/>
<feComposite in2="hardAlpha" operator="out"/>
<feColorMatrix type="matrix" values="0 0 0 0 0 0 0 0 0 0.682353 0 0 0 0 0.831373 0 0 0 1 0"/>
<feBlend mode="normal" in2="BackgroundImageFix" result="effect1_dropShadow_54_44"/>
<feBlend mode="normal" in="SourceGraphic" in2="effect1_dropShadow_54_44" result="shape"/>
</filter>
<filter id="filter24_d_54_44" x="154.173" y="26.0001" width="24.3612" height="202.812" filterUnits="userSpaceOnUse" color-interpolation-filters="sRGB">
<feFlood flood-opacity="0" result="BackgroundImageFix"/>
<feColorMatrix in="SourceAlpha" type="matrix" values="0 0 0 0 0 0 0 0 0 0 0 0 0 0 0 0 0 0 127 0" result="hardAlpha"/>
<feOffset/>
<feGaussianBlur stdDeviation="2"/>
<feComposite in2="hardAlpha" operator="out"/>
<feColorMatrix type="matrix" values="0 0 0 0 0 0 0 0 0 0.682353 0 0 0 0 0.831373 0 0 0 1 0"/>
<feBlend mode="normal" in2="BackgroundImageFix" result="effect1_dropShadow_54_44"/>
<feBlend mode="normal" in="SourceGraphic" in2="effect1_dropShadow_54_44" result="shape"/>
</filter>
</defs>
</svg>
